<svg viewBox="0 0 100 32" version="1.1" xmlns="http://www.w3.org/2000/svg" preserveAspectRatio="none">
    <path d="M 0,10.36261134810719 C 4.01079354673498e-18,10.29711011869921 -0.2,9.95688776169274 0,10.035105201067289 C 0.2,10.113322640441838 0.6000000000000001,10.936700360200902 1,10.753698544979938 C 1.4,10.570696729758975 1.8,9.348488782791947 2,9.120096124962474 C 2.2,8.891703467133002 1.8,9.50415540202263 2,9.611735255832578 C 2.2,9.719315109642526 2.6,9.667760088114548 3,9.657995394012215 C 3.4,9.648230699909881 3.8,9.79693601682186 4,9.562911785320908 C 4.2,9.328887553819957 3.8,8.962459196956035 4,8.487874236507457 C 4.2,8.01328927605888 4.6,7.553123059977986 5,7.189986983078024 C 5.4,6.826850906178061 5.8,6.664880344447818 6,6.672193852007641 C 6.2,6.679507359567465 5.8,7.125863622709522 6,7.226554520877139 C 6.2,7.327245419044756 6.6,7.154420746971084 7,7.175648342845728 C 7.4,7.196875938720371 7.8,7.24916791829382 8,7.332692500250358 C 8.2,7.416217082206897 7.8,7.770237308501059 8,7.593271252628419 C 8.2,7.416305196755779 8.6,6.508613197156305 9,6.447862220887156 C 9.4,6.387111244618008 9.8,7.242142785621313 10,7.289516371282677 C 10.2,7.336889956944042 9.8,6.708785421047386 10,6.684730149193976 C 10.2,6.660674877340567 10.6,7.042210874136392 11,7.169240012015629 C 11.4,7.296269149894866 11.6,7.3343506558526 12,7.3198758385901606 C 12.4,7.305401021327721 12.8,7.255183738860528 13,7.096865925703429 C 13.2,6.9385481125463295 12.8,6.721281666166036 13,6.528286772804666 C 13.2,6.335291879443296 13.6,6.363424451787334 14,6.131891458896579 C 14.4,5.900358466005824 14.8,5.537823170121189 15,5.37062180835089 C 15.2,5.2034204465805916 14.8,5.386466406328256 15,5.295884650045085 C 15.2,5.205302893761915 15.6,4.934887353559653 16,4.917713026935039 C 16.4,4.900538700310425 16.8,5.152394112346068 17,5.210013016922014 C 17.2,5.26763192149796 16.8,5.315806548513079 17,5.20580754981477 C 17.2,5.095808551116461 17.6,4.901179533393423 18,4.660018023430468 C 18.4,4.418856513467515 18.8,3.918478021427858 19,4 C 19.2,4.081521978572142 18.8,4.727986382296982 19,5.067627916291179 C 19.2,5.4072694502853755 19.6,5.625296885951755 20,5.698207669970984 C 20.4,5.771118453990212 20.8,5.44587964353662 21,5.432181836387321 C 21.2,5.418484029238022 20.8,5.663915089616494 21,5.629718634224488 C 21.2,5.595522178832481 21.6,5.294651046360295 22,5.261199559427287 C 22.4,5.227748072494279 22.8,5.599391208571171 23,5.462461199559449 C 23.2,5.325531190547728 22.8,4.510151196555525 23,4.576549514368678 C 23.2,4.642947832181831 23.6,5.416697707019123 24,5.794452788625213 C 24.4,6.172207870231302 24.6,6.164269550415545 25,6.465324922399128 C 25.4,6.76638029438271 25.8,7.257026133974183 26,7.299729648543126 C 26.2,7.342433163112069 25.8,6.964798237709052 26,6.678842495243844 C 26.2,6.392886752778636 26.6,6.1083488535095665 27,5.869950936217087 C 27.4,5.631553018924608 27.8,5.528026434364706 28,5.4868529087814455 C 28.2,5.445679383198185 27.8,5.495167718033442 28,5.664083308300787 C 28.2,5.832998898568133 28.6,6.1471432862721676 29,6.331430860118174 C 29.4,6.515718433964181 29.8,6.504079303094059 30,6.585521177530822 C 30.2,6.666963051967585 29.8,6.701167517773103 30,6.73864023230199 C 30.2,6.776112946830877 30.6,6.6860358466006105 31,6.772884750175258 C 31.4,6.859733653749906 31.8,7.165779513367384 32,7.172884750175228 C 32.2,7.179989986983073 31.8,6.877100230299388 32,6.808410934214482 C 32.2,6.739721638129576 32.6,6.792574346650667 33,6.829438269750699 C 33.4,6.86630219285073 33.8,6.828428957644949 34,6.992730549714638 C 34.2,7.1570321417843275 33.8,7.319275057574864 34,7.650946230099145 C 34.2,7.9826174026234265 34.6,8.33189546410334 35,8.651086412336042 C 35.4,8.970277360568744 35.8,9.148733353359376 36,9.246900971262654 C 36.2,9.345068589165933 35.8,9.170449584459828 36,9.14192450185244 C 36.2,9.113399419245052 36.6,9.216205066586586 37,9.104275558225716 C 37.4,8.992346049864846 37.6,8.68617202363075 38,8.582276960048087 C 38.4,8.478381896465425 38.8,8.589221988585159 39,8.584800240312402 C 39.2,8.580378492039646 38.8,8.690858115550228 39,8.560168218684304 C 39.2,8.42947832181838 39.6,7.773249223991197 40,7.931350755982782 C 40.4,8.089452287974368 40.8,9.032125763492532 41,9.350675878642228 C 41.2,9.669225993791924 40.8,9.323616701712233 41,9.524101331731263 C 41.2,9.724585961750293 41.6,10.199803744868346 42,10.353099028737375 C 42.4,10.506394312606405 42.8,10.261275658355872 43,10.290577751076409 C 43.2,10.319879843796945 42.8,10.456689696605602 43,10.49960949234006 C 43.2,10.542529288074517 43.6,10.573225192750595 44,10.505176729748694 C 44.4,10.437128266746793 44.8,10.3708260738961 45,10.159367177330559 C 45.2,9.947908280765018 44.8,9.359519375187741 45,9.447882246920994 C 45.2,9.536245118654247 45.6,10.295840592770622 46,10.601181535996819 C 46.4,10.906522479223016 46.8,10.969244017222401 47,10.974586963051978 C 47.2,10.979929908881555 46.8,10.593747872233914 47,10.6278962651447 C 47.2,10.662044658055487 47.6,10.97668569139884 48,11.145328927605908 C 48.4,11.313972163812975 48.6,11.479795734454797 49,11.47111244618004 C 49.4,11.462429157905284 49.8,11.433535596275176 50,11.101912486232123 C 50.2,10.770289376189071 49.8,10.18254931410837 50,9.81299689596478 C 50.2,9.44344447782119 50.6,9.285463102032654 51,9.254150395514177 C 51.4,9.2228376889957 51.8,9.627115249824781 52,9.656433363372397 C 52.2,9.685751476920013 51.8,9.317857214378723 52,9.400740963252256 C 52.2,9.483624712125788 52.6,9.790495644337645 53,10.07085210774006 C 53.4,10.351208571142477 53.8,10.830776008811446 54,10.802523280264335 C 54.2,10.774270551717224 53.8,9.925935716431358 54,9.92958846500451 C 54.2,9.933241213577663 54.6,10.540350455592291 55,10.820787023130094 C 55.4,11.101223590667898 55.8,11.374827275458125 56,11.331771302693525 C 56.2,11.288715329928925 55.8,10.65187944327626 56,10.605507159307093 C 56.2,10.559134875337927 56.6,10.902637428657247 57,11.099909882847696 C 57.4,11.297182337038144 57.8,11.560452588364868 58,11.591869430259337 C 58.2,11.623286272153805 57.8,11.346534494843322 58,11.256994092320044 C 58.2,11.167453689796766 58.6,11.125655351957553 59,11.144167417642944 C 59.4,11.162679483328334 59.8,11.10336237108243 60,11.349554420746996 C 60.2,11.595746470411562 59.8,12.28148593171125 60,12.37512766596578 C 60.2,12.468769400220308 60.6,11.680144187443691 61,11.81776309201964 C 61.4,11.955381996595587 61.6,12.954248523080025 62,13.063222188845522 C 62.4,13.172195854611019 62.8,12.38216080905179 63,12.362631420847123 C 63.2,12.343102032642456 62.8,12.536817863222208 63,12.965575247822184 C 63.2,13.39433263242216 63.6,14.467647942325021 64,14.506418343846999 C 64.4,14.545188745368977 64.8,13.540082106738774 65,13.159427255432075 C 65.2,12.778772404125375 64.8,12.7237088214679 65,12.603144087313503 C 65.2,12.482579353159105 65.6,12.537218383899095 66,12.556603584660085 C 66.4,12.575988785421075 66.8,12.775504155402023 67,12.700070091118448 C 67.2,12.624636026834873 66.8,12.955834584960442 67,12.179433263242212 C 67.2,11.403031941523981 67.6,9.466818864523894 68,8.8180634825273 C 68.4,8.169308100530706 68.8,8.737991388805455 69,8.935656353259246 C 69.2,9.133321317713037 68.8,9.604613998197678 69,9.806388304796254 C 69.2,10.00816261139483 69.6,9.809207970361468 70,9.944527886252128 C 70.4,10.079847802142789 70.8,10.295976769800765 71,10.482987884249553 C 71.2,10.669998998698341 70.8,10.660450585761513 71,10.879583458496068 C 71.2,11.098716331230623 71.6,11.433703814959475 72,11.578652247922326 C 72.4,11.723600680885177 72.8,11.473179132872753 73,11.604325623310318 C 73.2,11.735472113747884 72.8,12.038466005807564 73,12.234384700110157 C 73.2,12.43030339441275 73.6,12.4267547812156 74,12.583919094823287 C 74.4,12.741083408430974 74.6,13.051543005907682 75,13.020206268148591 C 75.4,12.9888695303895 75.8,12.187948332832676 76,12.427235406027833 C 76.2,12.66652247922299 75.8,13.987439671573062 76,14.216641634124379 C 76.2,14.445843596675696 76.6,13.51648342845699 77,13.573245218784416 C 77.4,13.630007009111843 77.8,14.138379893862036 78,14.50045058576151 C 78.2,14.862521277660983 77.8,15.191012316010832 78,15.383598678281782 C 78.2,15.576185040552732 78.6,15.713860018023437 79,15.463382397116256 C 79.4,15.212904776209074 79.8,14.175331931510975 80,14.131210573745877 C 80.2,14.087089215980779 79.8,15.084946430359457 80,15.242775608290764 C 80.2,15.40060478622207 80.6,14.886672674476802 81,14.920356463402412 C 81.4,14.95404025232802 81.8,15.128971663162122 82,15.411194552918808 C 82.2,15.693417442675493 81.8,16.036503454490838 82,16.331470912185836 C 82.2,16.626438369880834 82.6,16.574843296285156 83,16.8860318413938 C 83.4,17.197220386502448 83.8,17.356795834584968 84,17.88741363772906 C 84.2,18.418031440873154 83.8,17.516603584660075 84,19.539120857114263 C 84.2,21.56163812956845 84.6,27.183554621007318 85,28 C 85.4,28.816445378992682 85.8,24.7072634424752 86,23.62134775207768 C 86.2,22.535432061680158 85.8,22.976389306097907 86,22.5704215480124 C 86.2,22.164453789926895 86.6,21.970265344948437 87,21.59150896165015 C 87.4,21.21275257835186 87.6,20.426626614598966 88,20.676639631520963 C 88.4,20.92665264844296 88.8,22.750856112946813 89,22.841574046260128 C 89.2,22.932291979573442 88.8,21.7863943126064 89,21.130229298087528 C 89.2,20.474064283568655 89.6,19.693056974066277 90,19.560748973665756 C 90.4,19.428440973265236 90.8,20.28006808851508 91,20.46868929608492 C 91.2,20.657310503654763 90.8,20.719815760488633 91,20.503855011514965 C 91.2,20.287894262541297 91.6,19.56411334735156 92,19.388885551216582 C 92.4,19.213657755081602 92.8,19.621588064483813 93,19.627716030840073 C 93.2,19.633843997196333 92.8,19.62189246019824 93,19.419525382997886 C 93.2,19.217158305797533 93.6,18.771434865324938 94,18.615880644838306 C 94.4,18.460326424351674 94.8,18.590255331931502 95,18.641754280564722 C 95.2,18.693253229197943 94.8,18.56404525883649 95,18.87337538800441 C 95.2,19.182705517172327 95.6,20.285475117652936 96,20.188404926404313 C 96.4,20.09133473515569 96.8,18.98465605286873 97,18.38802443176129 C 97.2,17.791392810653853 96.8,17.134130369480324 97,17.205246820867128 C 97.2,17.27636327225393 97.6,18.3254550916191 98,18.7436066886953 C 98.4,19.1617582857715 98.8,19.185525182737564 99,19.29600480624813" stroke-width="1.7" class="SparkLine__Path-sc-9wg5ja-1 csnuAl"></path>
</svg>