<svg viewBox="0 0 100 32" version="1.1" xmlns="http://www.w3.org/2000/svg" preserveAspectRatio="none">
    <path d="M 0,14.635179421675335 C 8.474262725394446e-18,14.773574634585614 -0.19999999999999998,15.380443393690795 0,15.327155486226728 C 0.2,15.27386757876266 0.6000000000000001,14.801200772023508 1,14.368739884354994 C 1.4,13.93627899668648 1.8,13.440959775270407 2,13.164851047884163 C 2.2,12.888742320497919 1.8,13.302577554133983 2,12.988196247423776 C 2.2,12.67381494071357 2.6,11.581510130885146 3,11.592944514333128 C 3.4,11.60437889778111 3.8,12.937705093546745 4,13.045368164663683 C 4.2,13.153031235780622 3.8,12.200637027916803 4,12.13125986991782 C 4.2,12.061882711918836 4.6,12.670859987687685 5,12.69848237466876 C 5.4,12.726104761649836 5.8,12.65904017558415 6,12.2693718048232 C 6.2,11.879703434062248 5.8,10.847397018281091 6,10.750140520864 C 6.2,10.65288402344691 6.6,11.755466930756675 7,11.783089317737751 C 7.4,11.810711704718827 7.8,10.945552849227802 8,10.888252455769381 C 8.2,10.83095206231096 7.8,11.315050453681636 8,11.496587350445642 C 8.2,11.678124247209649 8.6,11.908096678354436 9,11.795936939589414 C 9.4,11.683777200824391 9.6,10.912791413506053 10,10.935788656620531 C 10.4,10.958785899735009 10.8,11.738251117475443 11,11.9109231551618 C 11.2,12.083595192848158 10.8,11.743904071090167 11,11.799148845052319 C 11.2,11.85439361901447 11.6,12.18714702497256 12,12.18714702497256 C 12.4,12.18714702497256 12.8,12.007665747704817 13,11.799148845052319 C 13.2,11.59063194239982 12.8,11.412692379754288 13,11.144562511710074 C 13.2,10.87643264366586 13.6,10.604320012847628 14,10.458499504831247 C 14.4,10.312678996814865 14.8,10.52222370921549 15,10.415459971628167 C 15.2,10.308696234040843 14.8,10.432547308690884 15,9.924680816894627 C 15.2,9.41681432509837 15.6,8.36767752469153 16,7.876127512646881 C 16.4,7.384577500602233 16.8,7.4083456010278015 17,7.466930756671386 C 17.2,7.52551591231497 16.8,8.27029255105591 17,8.169053290864802 C 17.2,8.067814030673695 17.6,7.7945451138888115 18,6.960734455715851 C 18.4,6.126923797542891 18.6,4.28907149166243 19,4 C 19.4,3.71092850833757 19.8,5.408484783597863 20,5.515376997403701 C 20.2,5.622269211209539 19.8,4.475875913385605 20,4.534461069029192 C 20.2,4.59304622467278 20.6,5.391525922753676 21,5.808302775621641 C 21.4,6.225079628489606 21.8,6.463916918712027 22,6.61834533336902 C 22.2,6.7727737480260135 21.8,6.715087925912039 22,6.580444848906606 C 22.2,6.4458017719011735 22.6,5.85892240571719 23,5.9451299483418545 C 23.4,6.031337490966519 23.8,6.699542303471538 24,7.011482562029927 C 24.2,7.323422820588315 23.8,7.304279864029333 24,7.504831241133799 C 24.2,7.705382618238266 24.6,8.01205535183748 25,8.01423944755226 C 25.4,8.01642354326704 25.8,7.672878134953546 26,7.515751719707702 C 26.2,7.358625304461858 25.8,7.389588073124383 26,7.22860737132304 C 26.2,7.067626669521697 26.6,6.893541393431647 27,6.710848210700989 C 27.4,6.528155027970331 27.8,6.251931158159563 28,6.31514145766975 C 28.2,6.378351757179937 27.8,6.755557934744786 28,7.026899708251922 C 28.2,7.298241481759058 28.6,7.5853858301437365 29,7.67185032520543 C 29.4,7.758314820267123 29.6,7.541061534755488 30,7.459222183560389 C 30.4,7.3773828323652895 30.8,7.238243087711772 31,7.2626535692299345 C 31.2,7.287064050748097 30.8,7.52089076844838 31,7.581274591151201 C 31.2,7.641658413854023 31.6,7.621873076202462 32,7.56457268274404 C 32.4,7.507272289285618 32.8,7.227579561574891 33,7.294772623859091 C 33.2,7.36196568614329 32.8,7.773603490270604 33,7.90053799416504 C 33.2,8.027472498059476 33.6,7.704997189582712 34,7.92944514333127 C 34.4,8.153893097079829 34.8,8.713407028719772 35,9.022777762907833 C 35.2,9.332148497095893 34.8,9.46794786006799 35,9.476298814271573 C 35.2,9.484649768475155 35.6,9.18517170311287 36,9.064532533925746 C 36.4,8.943893364738623 36.8,9.039608147533517 37,8.873102968335957 C 37.2,8.706597789138396 36.8,8.376927812424709 37,8.232006637937946 C 37.2,8.087085463451183 37.6,8.142715666068892 38,8.148497095902142 C 38.4,8.154278525735393 38.6,8.356628569899092 39,8.260913787104197 C 39.4,8.165199004309303 39.8,7.434297797168163 40,7.66992318192767 C 40.2,7.905548566687177 39.8,9.001322234415555 40,9.439040710901732 C 40.2,9.87675918738791 40.6,9.609914081528864 41,9.858515564358555 C 41.4,10.107117047188247 41.8,10.57027381494072 42,10.68204812505019 C 42.2,10.793822435159662 41.8,10.497299322823254 42,10.417387114905907 C 42.2,10.33747490698856 42.6,10.390921013891491 43,10.282487085463453 C 43.4,10.174053157035415 43.8,10.003822167500871 44,9.875217472765717 C 44.2,9.746612778030563 43.8,9.684815716924057 44,9.639463611787683 C 44.2,9.59411150665131 44.6,9.342041165921671 45,9.648456947083847 C 45.4,9.954872728246023 45.8,10.740761756912287 46,11.171542517598565 C 46.2,11.602323278284844 45.8,11.680565295361474 46,11.802360750515245 C 46.2,11.924156205669016 46.6,11.809812371189212 47,11.780519793367418 C 47.4,11.751227215545624 47.8,11.643564144428678 48,11.655897861406274 C 48.2,11.66823157838387 47.8,11.71268434999063 48,11.842188378255399 C 48.2,11.971692406520168 48.6,12.472364230079489 49,12.303418002730115 C 49.4,12.134471775380742 49.6,11.43350552715399 50,10.997457241508531 C 50.4,10.561408955863072 50.8,10.231482026712344 51,10.123176574502821 C 51.2,10.014871122293298 50.8,10.3747330103584 51,10.455929980460914 C 51.2,10.537126950563428 51.6,10.608302775621638 52,10.52916142501539 C 52.4,10.450020074409142 52.8,9.987891116404809 53,10.060223227429674 C 53.2,10.132555338454539 52.8,10.834806348866461 53,10.890821980139712 C 53.2,10.946837611412963 53.6,10.339530526484833 54,10.340301383795932 C 54.4,10.341072241107032 54.8,10.72097641926072 55,10.894676266695212 C 55.2,11.068376114129704 54.8,11.274195016193353 55,11.208800620968386 C 55.2,11.14340622574342 55.6,10.461968362731184 56,10.567704290570376 C 56.4,10.673440218409567 56.8,11.27882016005995 57,11.73748026016434 C 57.2,12.196140360268728 56.8,12.765803913171492 57,12.86100479109232 C 57.2,12.956205669013148 57.6,12.271941329193549 58,12.213484649768478 C 58.4,12.155027970343408 58.6,12.509750809667835 59,12.568721393966971 C 59.4,12.627691978266107 59.8,12.345558202403582 60,12.508337571264159 C 60.2,12.671116940124735 59.8,13.391611573566017 60,13.382618238269849 C 60.2,13.373624902973681 60.6,12.300206097267193 61,12.46337089478332 C 61.4,12.626535692299448 61.8,14.019860282112365 62,14.198442225850487 C 62.2,14.377024169588609 61.8,13.468311876020438 62,13.356280613473931 C 62.2,13.244249350927424 62.6,13.351141564733268 63,13.638285913117949 C 63.4,13.92543026150263 63.8,14.868702657851767 64,14.792002355397337 C 64.2,14.715302052942906 63.8,13.73708412515725 64,13.2547844008458 C 64.2,12.77248467653435 64.6,12.559728058670796 65,12.380503733840088 C 65.4,12.20127940900938 65.8,12.509750809667825 66,12.358662776692263 C 66.2,12.207574743716702 65.8,12.035416610904415 66,11.625063568962284 C 66.2,11.214710527020154 66.6,10.772623859104412 67,10.306897566981611 C 67.4,9.84117127485881 67.8,9.53475549369664 68,9.29643210834828 C 68.2,9.058108722999922 67.8,8.861283156232435 68,9.11528064023982 C 68.2,9.369278124247206 68.6,10.155809534006046 69,10.56641952838521 C 69.4,10.977029522764372 69.6,11.318904740237134 70,11.16833061213564 C 70.4,11.017756484034145 70.8,10.050330558603896 71,9.813548887877738 C 71.2,9.57676721715158 70.8,9.729525440967846 71,9.984422258504846 C 71.2,10.239319076041847 71.6,10.930521131661344 72,11.08803297556274 C 72.4,11.245544819464136 72.8,10.691426889001892 73,10.771981478011826 C 73.2,10.85253606702176 72.8,11.210984716683171 73,11.490805920612404 C 73.2,11.770627124541637 73.6,11.968095072401708 74,12.171087497657993 C 74.4,12.374079922914278 74.8,12.375750113754993 75,12.505768046893827 C 75.2,12.635785980032662 74.8,12.551634056904268 75,12.821177163352168 C 75.2,13.090720269800068 75.6,13.845775006022327 76,13.853483579133325 C 76.4,13.861192152244323 76.8,12.973421482294375 77,12.859720028907153 C 77.2,12.746018575519932 76.8,13.094959985011114 77,13.284976312197216 C 77.2,13.474992639383318 77.6,13.76329327373464 78,13.80980166483766 C 78.4,13.856310055940682 78.6,13.713958405824258 79,13.517518267712324 C 79.4,13.32107812960039 79.8,12.791884585530372 80,12.827600974277997 C 80.2,12.863317363025622 79.8,13.619271432777504 80,13.69610021145045 C 80.2,13.772928990123395 80.6,13.161767618639754 81,13.211744867642722 C 81.4,13.26172211664569 81.8,13.652161344717747 82,13.945986456465292 C 82.2,14.239811568212836 81.8,14.352999116725991 82,14.680870426380446 C 82.2,15.008741736034901 82.6,15.139787478921871 83,15.585343004737563 C 83.4,16.030898530553255 83.8,16.32896335751185 84,16.908648055458904 C 84.2,17.48833275340596 83.8,16.265496105564623 84,18.483766494472842 C 84.2,20.702036883381062 84.6,27.30584299135462 85,28 C 85.4,28.69415700864538 85.8,22.720141323840362 86,21.954551537699736 C 86.2,21.18896175155911 85.8,24.327250341264957 86,24.172051069296863 C 86.2,24.01685179732877 86.6,22.00838307325821 87,21.178555177859263 C 87.4,20.348727282460317 87.8,19.862316319156342 88,20.022911592302137 C 88.2,20.18350686544793 87.8,22.05604775032789 88,21.98153154358824 C 88.2,21.90701533684859 88.6,20.290912984127836 89,19.65033055860389 C 89.4,19.009748133079945 89.6,18.857632290356253 90,18.77861941596852 C 90.4,18.69960654158079 90.8,19.254623805572653 91,19.255266186665235 C 91.2,19.255908567757817 90.8,18.928551162977435 91,18.78183132143144 C 91.2,18.635111479885445 91.6,18.589116993656493 92,18.521666978935258 C 92.4,18.454216964214023 92.8,18.49160354380236 93,18.444581247825273 C 93.2,18.397558951848186 92.8,18.84658333556383 93,18.28655549904982 C 93.2,17.726527662535805 93.6,15.981949091298413 94,15.64444206525521 C 94.4,15.306935039212009 94.8,16.123915312759298 95,16.599020368833813 C 95.2,17.074125424908328 94.8,17.430004550199403 95,18.01996734562779 C 95.2,18.60993014105618 95.6,19.55487272824603 96,19.54883434597575 C 96.4,19.54279596370547 96.8,18.424153529081128 97,17.989775434276385 C 97.2,17.555397339471643 96.8,17.151725060892375 97,17.376943871952037 C 97.2,17.6021626830117 97.6,18.751382457642993 98,19.11586948957469 C 98.4,19.480356521506383 98.8,19.18267712320334 99,19.199379031610505" stroke-width="1.7" class="SparkLine__Path-sc-9wg5ja-1 csnuAl"></path>
</svg>