<svg viewBox="0 0 100 32" version="1.1" xmlns="http://www.w3.org/2000/svg" preserveAspectRatio="none">
    <path d="M 0,18.479402768972562 C 1.4496836613881282e-17,18.2426514603671 -0.19999999999999996,17.453819131694537 0,17.295646225945255 C 0.19999999999999996,17.137473320195973 0.6000000000000001,17.9177015376286 1,17.688538240226155 C 1.4,17.45937494282371 1.8,16.312338749066807 2,16.149829738933043 C 2.2,15.98732072879928 1.7999999999999998,16.64418274687856 2,16.875993189557335 C 2.2,17.10780363223611 2.6,17.232945516458592 3,17.30888195232692 C 3.4,17.38481838819525 3.8,17.406271282633373 4,17.25567536889898 C 4.2,17.10507945516459 3.8,16.731441543700353 4,16.555902383654953 C 4.2,16.380363223609553 4.6,16.340862656072666 5,16.377979568671982 C 5.4,16.4150964812713 5.8,16.55198637911464 6,16.741486946651527 C 6.2,16.930987514188413 5.8,17.22902951191827 6,17.32548240635641 C 6.2,17.42193530079455 6.6,17.338677639046534 7,17.223751418842223 C 7.4,17.108825198637913 7.6,16.89625425652668 8,16.75085130533486 C 8.4,16.605448354143036 8.8,16.76889897843361 9,16.4967366628831 C 9.2,16.22457434733259 8.8,15.508626560726462 9,15.390039727582304 C 9.2,15.271452894438145 9.6,16.00374574347332 10,15.903802497162312 C 10.4,15.803859250851303 10.8,15.089103291713977 11,14.890323496027259 C 11.2,14.69154370034054 10.8,14.833115777525546 11,14.909903518728719 C 11.2,14.986691259931892 11.6,15.287116912599313 12,15.274262202043127 C 12.4,15.261407491486942 12.8,14.935272417707148 13,14.845629965947788 C 13.2,14.755987514188428 12.8,15.001589103291728 13,14.826049943246328 C 13.2,14.650510783200929 13.6,14.312627695800247 14,13.967934165720788 C 14.4,13.623240635641329 14.8,13.448552780930758 15,13.102582292849032 C 15.2,12.756611804767306 14.8,12.44069239500569 15,12.238081725312163 C 15.2,12.035471055618636 15.6,12.331214528944393 16,12.089528944381396 C 16.4,11.847843359818398 16.6,11.38226447219071 17,11.02965380249718 C 17.4,10.677043132803648 17.8,10.41407491486947 18,10.326475595913736 C 18.2,10.238876276958003 17.8,10.49537457434734 18,10.591657207718512 C 18.2,10.687939841089685 18.6,10.695090805902401 19,10.807888762769597 C 19.4,10.920686719636793 19.8,11.179483541430201 20,11.15564699205449 C 20.2,11.131810442678777 19.8,10.903660612939843 20,10.688706015891036 C 20.2,10.473751418842228 20.6,10.308513053348472 21,10.080874006810449 C 21.4,9.853234960272426 21.8,9.78036322360955 22,9.550510783200924 C 22.2,9.320658342792298 21.8,9.367139614074922 22,8.931611804767316 C 22.2,8.49608399545971 22.6,7.4941827468785505 23,7.372871736662888 C 23.4,7.251560726447226 23.6,8.020119182746894 24,8.325056753689006 C 24.4,8.629994324631118 24.8,8.68030646992056 25,8.897559591373449 C 25.2,9.114812712826339 24.8,9.540465380249714 25,9.411322360953458 C 25.2,9.282179341657201 25.6,8.624290578887623 26,8.251844494892165 C 26.4,7.879398410896706 26.8,7.74327468785471 27,7.549091940976166 C 27.2,7.354909194097623 26.8,7.24279228149831 27,7.280930760499446 C 27.2,7.319069239500583 27.6,7.649460839954607 28,7.73978433598185 C 28.4,7.830107832009093 28.8,7.645715096481293 29,7.73254824063566 C 29.2,7.819381384790027 28.8,8.12687287173666 29,8.173950056753686 C 29.2,8.221027241770711 29.6,7.989897843359831 30,7.967934165720789 C 30.4,7.945970488081747 30.8,8.044381384790034 31,8.064131668558478 C 31.2,8.083881952326921 30.8,8.012457434733266 31,8.066685584563004 C 31.2,8.120913734392742 31.6,8.378433598183895 32,8.335272417707166 C 32.4,8.292111237230438 32.6,8.104994324631123 33,7.850879682179363 C 33.4,7.596765039727602 33.8,7.04026674233826 34,7.0646992054483615 C 34.2,7.089131668558463 33.8,7.704710556186167 34,7.973041997729869 C 34.2,8.241373439273572 34.6,8.23541430192964 35,8.406356413166872 C 35.4,8.577298524404103 35.8,8.650766174801378 36,8.82775255391602 C 36.2,9.004738933030664 35.8,9.395232690124876 36,9.291288308740087 C 36.2,9.187343927355299 36.6,8.572701475595933 37,8.308030646992073 C 37.4,8.043359818388213 37.8,8.141174801362107 38,7.967934165720789 C 38.2,7.794693530079471 37.8,7.862116912599333 38,7.441827468785483 C 38.2,7.021538024971633 38.6,6.009761634506247 39,5.866486946651538 C 39.4,5.723212258796829 39.8,6.201901248581175 40,6.725454029511937 C 40.2,7.249006810442699 39.8,8.130107832009095 40,8.48425085130535 C 40.2,8.838393870601603 40.6,8.576191827468802 41,8.496169125993204 C 41.4,8.416146424517605 41.6,8.15028376844495 42,8.084137343927354 C 42.4,8.017990919409758 42.8,8.095119182746876 43,8.16543700340522 C 43.2,8.235754824063564 42.8,8.290664018161184 43,8.435726447219075 C 43.2,8.580788876276966 43.6,8.810130533484688 44,8.890749148694676 C 44.4,8.971367763904663 44.8,8.921566401816122 45,8.838819523269013 C 45.2,8.756072644721904 44.8,8.27278660612939 45,8.477014755959132 C 45.2,8.681242905788874 45.6,9.348581157775273 46,9.859960272417727 C 46.4,10.37133938706018 46.8,10.733399545970496 47,11.0339103291714 C 47.2,11.334421112372304 46.8,11.393586833144155 47,11.362514188422248 C 47.2,11.33144154370034 47.6,10.826276958002264 48,10.878547105561859 C 48.4,10.930817253121454 48.6,11.503149829738947 49,11.62386492622022 C 49.4,11.744580022701493 49.8,11.79055051078321 50,11.482122587968227 C 50.2,11.173694665153246 49.8,10.423013620885376 50,10.08172531214531 C 50.2,9.740437003405242 50.6,9.807519863791166 51,9.775681044267891 C 51.4,9.743842224744617 51.8,10.105902383654932 52,9.922531214528938 C 52.2,9.739160045402944 51.8,9.257576617480138 52,8.858825198637918 C 52.2,8.460073779795698 52.6,8.000964812712844 53,7.928774120317841 C 53.4,7.856583427922836 53.8,8.534392735527824 54,8.497871736662898 C 54.2,8.461350737797972 53.8,7.960357548240655 54,7.746169125993207 C 54.2,7.531980703745759 54.6,7.507292849035197 55,7.426929625425659 C 55.4,7.346566401816121 55.8,7.519125993189557 56,7.344353007945518 C 56.2,7.169580022701479 55.8,6.782406356413179 56,6.553064699205463 C 56.2,6.323723041997748 56.6,5.902837684449504 57,6.197644721906939 C 57.4,6.492451759364374 57.6,7.863479001135093 58,8.027099886492639 C 58.4,8.190720771850184 58.8,7.1941827468785515 59,7.01574914869467 C 59.2,6.837315550510789 58.8,7.032604994324654 59,7.134931895573233 C 59.2,7.237258796821813 59.6,7.298893303064697 60,7.527383654937569 C 60.4,7.75587400681044 60.8,8.262996594778677 61,8.27738365493759 C 61.2,8.291770715096504 60.8,7.462854710556198 61,7.599318955732134 C 61.2,7.735783200908069 61.6,8.74781498297391 62,8.95970488081727 C 62.4,9.17159477866063 62.8,8.478547105561875 63,8.658768444948933 C 63.2,8.838989784335991 62.8,9.383825198637918 63,9.86081157775256 C 63.2,10.337797956867202 63.6,11.095204313280371 64,11.043700340522143 C 64.4,10.992196367763915 64.8,10.13152667423384 65,9.603291713961418 C 65.2,9.075056753688997 64.8,8.70014188422247 65,8.402525539160042 C 65.2,8.104909194097614 65.6,8.281980703745756 66,8.115209988649278 C 66.4,7.9484392735528 66.6,7.855221339387077 67,7.568671963677653 C 67.4,7.28212258796823 67.8,6.973950056753692 68,6.68246311010216 C 68.2,6.3909761634506275 67.8,6.430306469920557 68,6.111237230419993 C 68.2,5.792167990919429 68.6,5.126191827468807 69,5.087116912599337 C 69.4,5.048041997729868 69.8,5.810045402951196 70,5.915862656072646 C 70.2,6.021679909194096 69.8,5.999375709421115 70,5.616203178206586 C 70.2,5.233030646992057 70.6,4.124545970488082 71,4 C 71.4,3.8754540295119178 71.8,4.377043132803633 72,4.993473325766176 C 72.2,5.609903518728718 71.8,6.962372304199771 72,7.082150964812712 C 72.2,7.201929625425652 72.6,5.946254256526677 73,5.592366628830879 C 73.4,5.238479001135081 73.6,5.277128263337128 74,5.312712826333723 C 74.4,5.348297389330317 74.8,5.6007945516458575 75,5.77028944381385 C 75.2,5.939784335981842 74.8,6.160017026106712 75,6.1601872871736845 C 75.2,6.160357548240657 75.6,5.62114074914871 76,5.771140749148709 C 76.4,5.921140749148709 76.8,6.792451759364373 77,6.910187287173682 C 77.2,7.027922814982991 76.8,6.351901248581179 77,6.359818388195253 C 77.2,6.367735527809326 77.6,6.792962542565273 78,6.949772985244046 C 78.4,7.106583427922819 78.8,6.943303064699216 79,7.143870601589116 C 79.2,7.344438138479016 78.8,8.196424517593659 79,7.952610669693548 C 79.2,7.7087968217934355 79.6,6.036492622020452 80,5.924801362088556 C 80.4,5.81311010215666 80.8,7.243473325766192 81,7.394154370034069 C 81.2,7.544835414301946 80.8,6.6620317820658554 81,6.67820658342794 C 81.2,6.694381384790025 81.6,7.075510783200905 82,7.475028376844491 C 82.4,7.874545970488076 82.6,8.175227014755968 83,8.675794551645868 C 83.4,9.176362088535768 83.8,9.769466515323497 84,9.977866061293987 C 84.2,10.186265607264477 83.8,6.113365493757115 84,9.717792281498317 C 84.2,13.32221906923952 84.6,26.12695800227015 85,28 C 85.4,29.87304199772985 85.8,20.911691259931906 86,19.08300227014757 C 86.2,17.254313280363235 85.8,19.429228149829743 86,18.856555051078324 C 86.2,18.283881952326904 86.6,16.7133938706016 87,16.219636776390473 C 87.4,15.725879682179349 87.8,15.723581157775254 88,16.3877695800227 C 88.2,17.051958002270144 87.8,19.399347332576617 88,19.5405788876277 C 88.2,19.68181044267878 88.6,18.02099886492624 89,17.09392735527811 C 89.4,16.166855845629982 89.8,15.40808740068104 90,14.905221339387055 C 90.2,14.402355278093069 89.8,14.68396708286039 90,14.579597048808179 C 90.2,14.475227014755967 90.6,14.540522133938708 91,14.383371169125997 C 91.4,14.226220204313286 91.6,13.888847900113522 92,13.79384222474462 C 92.4,13.69883654937572 92.8,14.228263337116907 93,13.908342792281493 C 93.2,13.58842224744608 92.8,12.866259931895586 93,12.194239500567551 C 93.2,11.522219069239517 93.6,10.700624290578888 94,10.548240635641319 C 94.4,10.39585698070375 94.8,11.159648127128282 95,11.432321225879702 C 95.2,11.704994324631123 94.8,11.544948921679925 95,11.911606129398425 C 95.2,12.278263337116925 95.6,13.280419977298541 96,13.265607264472207 C 96.4,13.250794551645873 96.8,12.174318955732133 97,11.837542565266752 C 97.2,11.50076617480137 96.8,11.185187287173681 97,11.581725312145302 C 97.2,11.978263337116923 97.6,13.226958002270148 98,13.820232690124856 C 98.4,14.413507377979563 98.8,14.402525539160042 99,14.548098751418838" stroke-width="1.7" class="SparkLine__Path-sc-9wg5ja-1 csnuAl"></path>
</svg>