<svg viewBox="0 0 100 32" version="1.1" xmlns="http://www.w3.org/2000/svg" preserveAspectRatio="none">
    <path d="m 0,14.31876794422806 c 1.279233599555724e-17,14.109853243198119 -0.19999999999999993,13.745361155337092 0,13.27419443907835 c 0.19999999999999998,12.803027722819609 0.6,12.790437343414116 1,11.96293436293435 c 1.4000000000000001,11.135431382454584 1.8,9.624092664092645 2,9.13667953667952 c 2.2,8.649266409266394 1.8,9.40725868725868 2,9.525868725868722 c 2.2,9.644478764478764 2.6,9.714285714285715 3,9.72972972972973 c 3.4,9.745173745173744 3.8,9.402316602316596 4,9.603088803088792 c 4.2,9.803861003860987 3.8,10.71876447876446 4,10.733590733590713 c 4.2,10.748416988416967 4.6,10.304247104247086 5,9.67722007722006 c 5.4,9.050193050193034 5.8,7.697915057915039 6,7.598455598455579 c 6.2,7.498996138996119 5.8,8.80555984555982 6,9.179922779922759 c 6.2,9.554285714285697 6.6,9.305945945945943 7,9.470270270270271 c 7.4,9.6345945945946 7.8,10.14795366795367 8,10.001544401544402 c 8.2,9.855135135135134 7.8,9.237992277992277 8,8.738223938223934 c 8.2,8.238455598455591 8.6,7.51752895752895 9,7.502702702702692 c 9.4,7.487876447876434 9.6,8.528803088803064 10,8.664092664092642 c 10.4,8.79938223938222 10.8,8.35274131274131 11,8.179150579150578 c 11.2,8.005559845559846 10.8,7.996293436293423 11,7.796138996138983 c 11.2,7.5959845559845425 11.6,7.937606177606171 12,7.178378378378374 c 12.4,6.419150579150577 12.8,4.434285714285718 13,4 c 13.2,3.5657142857142823 12.8,4.8562162162161995 13,5.006949806949786 c 13.2,5.157683397683372 13.6,4.659150579150557 14,4.753667953667932 c 14.4,4.848185328185307 14.799999999999999,5.061312741312725 15,5.479536679536663 c 15.2,5.897760617760601 14.8,6.481544401544379 15,6.844787644787623 c 15.2,7.208030888030866 15.6,7.348880308880293 16,7.29575289575288 c 16.4,7.242625482625467 16.8,6.970193050193026 17,6.579150579150557 c 17.2,6.188108108108088 16.8,5.250347490347486 17,5.3405405405405375 c 17.2,5.430733590733589 17.6,6.668108108108092 18,7.030115830115815 c 18.4,7.392123552123537 18.6,7.131428571428566 19,7.150579150579149 c 19.4,7.169729729729731 19.8,7.001698841698843 20,7.125868725868726 c 20.2,7.250038610038608 19.8,7.630579150579142 20,7.77142857142856 c 20.2,7.912277992277978 20.6,7.891891891891874 21,7.830115830115814 c 21.4,7.768339768339753 21.8,7.5261776061775985 22,7.462548262548256 c 22.2,7.3989189189189135 21.8,7.199382239382228 22,7.5119691119691 c 22.2,7.824555984555973 22.6,8.680154440154432 23,9.025482625482619 c 23.4,9.370810810810806 23.8,9.245405405405403 24,9.238610038610037 c 24.2,9.231814671814671 23.8,9.216370656370655 24,8.991505791505787 c 24.2,8.76664092664092 24.6,8.29590733590732 25,8.114285714285696 c 25.4,7.932664092664072 25.8,8.286640926640912 26,8.083397683397667 c 26.2,7.880154440154423 25.8,7.2345945945945695 26,7.098069498069476 c 26.2,6.961544401544383 26.6,7.3322007722007685 27,7.4007722007722005 c 27.4,7.469343629343633 27.8,7.256833976833975 28,7.440926640926636 c 28.2,7.625019305019298 27.8,8.259459459459448 28,8.321235521235508 c 28.2,8.38301158301157 28.6,7.925250965250954 29,7.74980694980694 c 29.4,7.574362934362926 29.6,7.350115830115824 30,7.444015444015439 c 30.4,7.537915057915054 30.8,8.171737451737448 31,8.219305019305015 c 31.2,8.266872586872584 30.8,7.981467181467179 31,7.681853281853279 c 31.2,7.382239382239378 31.6,6.718764478764468 32,6.721235521235511 c 32.4,6.723706563706553 32.8,7.4069498069498 33,7.69420849420849 c 33.2,7.981467181467179 32.8,7.919691119691125 33,8.15752895752896 c 33.2,8.395366795366796 33.6,8.636293436293423 34,8.883397683397666 c 34.4,9.130501930501909 34.8,9.286177606177588 35,9.393050193050176 c 35.2,9.499922779922763 34.8,9.473359073359054 35,9.4177606177606 c 35.2,9.362162162162145 35.6,9.30965250965249 36,9.1150579150579 c 36.4,8.920463320463309 36.8,8.604787644787644 37,8.444787644787644 c 37.2,8.284787644787643 36.8,8.424401544401531 37,8.315057915057903 c 37.2,8.205714285714274 37.6,8.05745173745174 38,7.8980694980695 c 38.4,7.738687258687261 38.6,7.264864864864857 39,7.518146718146706 c 39.4,7.771428571428555 39.8,8.66285714285712 40,9.164478764478744 c 40.2,9.666100386100368 39.8,9.75691119691119 40,10.026254826254824 c 40.2,10.295598455598459 40.6,10.493899613899616 41,10.511196911196912 c 41.4,10.528494208494207 41.8,10.248030888030879 42,10.112741312741303 c 42.2,9.977451737451727 41.8,9.924324324324319 42,9.834749034749027 c 42.2,9.745173745173735 42.6,9.711196911196895 43,9.664864864864848 c 43.4,9.6185328185328 43.8,9.527104247104234 44,9.603088803088792 c 44.2,9.67907335907335 43.8,9.567258687258683 44,10.04478764478764 c 44.2,10.522316602316597 44.6,11.514440154440141 45,11.990733590733576 c 45.4,12.467027027027012 45.8,12.330501930501923 46,12.42625482625482 c 46.2,12.522007722007716 45.8,12.517683397683387 46,12.469498069498059 c 46.2,12.42131274131273 46.6,12.053127413127402 47,12.185328185328176 c 47.4,12.31752895752895 47.8,12.944555984555983 48,13.13050193050193 c 48.2,13.316447876447878 47.8,13.574671814671818 48,13.115057915057918 c 48.2,12.655444015444017 48.6,11.316756756756757 49,10.832432432432428 c 49.4,10.3481081081081 49.6,10.62486486486485 50,10.693436293436278 c 50.4,10.762007722007706 50.8,11.28216216216215 51,11.175289575289563 c 51.2,11.068416988416976 50.8,10.294362934362915 51,10.159073359073343 c 51.2,10.02378378378377 51.6,10.356756756756758 52,10.498841698841701 c 52.4,10.640926640926645 52.8,10.981312741312736 53,10.86949806949806 c 53.2,10.757683397683385 52.8,10.157837837837818 53,9.939768339768321 c 53.2,9.721698841698824 53.6,9.592586872586867 54,9.779150579150576 c 54.4,9.965714285714284 54.8,10.823166023166015 55,10.872586872586865 c 55.2,10.922007722007715 54.8,9.85019305019305 55,10.026254826254824 c 55.2,10.202316602316598 55.6,11.059150579150565 56,11.752895752895736 c 56.4,12.446640926640908 56.8,13.338069498069489 57,13.494980694980685 c 57.2,13.65189189189188 56.8,12.582548262548244 57,12.537451737451718 c 57.2,12.492355212355193 57.6,13.081081081081065 58,13.269498069498056 c 58.4,13.457915057915047 58.6,13.275675675675668 59,13.479536679536672 c 59.4,13.683397683397676 59.8,14.496370656370646 60,14.288803088803078 c 60.2,14.081235521235511 59.8,12.337915057915048 60,12.441698841698832 c 60.2,12.545482625482617 60.6,14.645868725868716 61,14.807722007721997 c 61.4,14.969575289575278 61.8,13.54872586872586 62,13.25096525096524 c 62.2,12.95320463320462 61.8,13.012509652509634 62,13.3189189189189 c 62.2,13.625328185328167 62.6,15.1481081081081 63,14.783011583011575 c 63.4,14.41791505791505 63.8,12.204478764478749 64,11.493436293436275 c 64.2,10.782393822393802 63.8,11.311196911196891 64,11.22779922779921 c 64.2,11.144401544401529 64.6,11.115984555984548 65,11.076447876447872 c 65.4,11.036911196911197 65.8,11.279691119691122 66,11.030115830115832 c 66.2,10.780540540540542 65.8,10.480926640926635 66,9.82857142857142 c 66.2,9.176216216216206 66.6,8.00864864864864 67,7.768339768339757 c 67.4,7.528030888030875 67.8,8.175444015443995 68,8.627027027027008 c 68.2,9.078610038610021 67.8,9.700694980694974 68,10.026254826254824 c 68.2,10.351814671814674 68.6,10.322779922779928 69,10.254826254826256 c 69.4,10.186872586872584 69.6,9.869961389961373 70,9.686486486486467 c 70.4,9.503011583011562 70.8,9.200308880308867 71,9.337451737451726 c 71.2,9.474594594594585 70.8,10.294362934362923 71,10.372200772200763 c 71.2,10.450038610038604 71.6,9.65868725868726 72,9.726640926640927 c 72.4,9.794594594594594 72.8,10.313513513513499 73,10.711969111969093 c 73.2,11.110424710424688 72.8,11.360617760617744 73,11.718918918918904 c 73.2,12.077220077220064 73.6,12.342857142857127 74,12.503474903474888 c 74.4,12.66409266409265 74.8,12.315057915057897 75,12.522007722007706 c 75.2,12.728957528957514 74.8,13.56478764478763 75,13.538223938223926 c 75.2,13.51166023166022 75.6,12.412046332046327 76,12.389189189189185 c 76.4,12.366332046332044 76.8,13.118764478764474 77,13.42393822393822 c 77.2,13.729111969111967 76.8,13.905173745173746 77,13.915057915057915 c 77.2,13.924942084942083 77.6,13.827953667953663 78,13.473359073359067 c 78.4,13.11876447876447 78.6,12.129111969111966 79,12.142084942084937 c 79.4,12.155057915057908 79.8,13.476447876447864 80,13.538223938223926 c 80.2,13.599999999999987 79.8,12.552277992277984 80,12.450965250965242 c 80.2,12.349652509652499 80.6,12.707335907335892 81,13.031660231660215 c 81.4,13.355984555984538 81.8,13.87613899613898 82,14.072586872586857 c 82.2,14.269034749034734 81.8,13.668571428571417 82,14.013899613899603 c 82.2,14.35922779922779 82.6,14.861467181467175 83,15.799227799227793 c 83.4,16.73698841698841 83.8,16.262548262548254 84,18.702702702702695 c 84.2,21.142857142857135 83.8,27.16046332046332 84,28 c 84.2,28.83953667953668 84.6,24.017297297297286 85,22.90038610038609 c 85.4,21.783474903474893 85.8,23.01714285714285 86,22.415444015444013 c 86.2,21.813745173745176 85.8,20.391660231660236 86,19.891891891891895 c 86.2,19.392123552123554 86.6,19.15675675675676 87,19.916602316602315 c 87.4,20.67644787644787 87.8,23.608957528957518 88,23.691119691119678 c 88.2,23.773281853281837 87.8,21.31397683397682 88,20.327413127413113 c 88.2,19.340849420849406 88.6,18.858378378378365 89,18.758301158301144 c 89.4,18.658223938223923 89.6,19.78440154440153 90,19.82702702702701 c 90.4,19.869652509652493 90.8,19.176525096525086 91,18.97142857142856 c 91.2,18.766332046332035 90.8,18.91953667953666 91,18.801544401544383 c 91.2,18.683552123552108 91.6,18.769420849420847 92,18.38146718146718 c 92.4,17.993513513513513 92.8,17.35413127413127 93,16.861776061776055 c 93.2,16.36942084942084 92.8,15.761544401544384 93,15.919691119691102 c 93.2,16.07783783783782 93.6,17.236756756756748 94,17.652509652509643 c 94.4,18.06826254826254 94.8,17.5981467181467 95,17.998455598455582 c 95.2,18.398764478764463 94.8,19.807258687258688 95,19.654054054054054 c 95.2,19.50084942084942 95.6,17.646332046332027 96,17.232432432432415 c 96.4,16.818532818532802 96.8,17.137297297297295 97,17.584555984555983 c 97.2,18.031814671814672 96.8,19.043088803088796 97,19.468725868725862 c 97.2,19.894362934362928 97.6,19.518146718146713 98,19.712741312741308 c 98.4,19.907335907335902 98.8,20.295907335907334 99,20.44169884169884" stroke-width="1.7" class="SparkLine__Path-sc-9wg5ja-1 csnuAl"></path>
</svg>